# xmcd CD database file
#
# Track frame offsets:
#	150
#	14554
#	26491
#	40038
#	52641
#	66744
#	80358
#	93425
#	106803
#	119536
#	132068
#	145926
#	157440
#	169098
#	181496
#	193239
#
# Disc length: 2729 seconds
#
# Revision: 0
# Processed by: cddbd v1.5.2PL0 Copyright (c) Steve Scherf et al.
# Submitted via: CDex 1.51
#
DISCID=df0aa710
DTITLE=BURUNDANGA - CELIA CRUZ - EL BAILE DEL SIGLO CON LA SONORA MATANCERA (DISCO 1)
DYEAR=1999
DGENRE=Salsa
TTITLE0=EL SOFÁ - DANIEL SANTOS
TTITLE1=BURUNDANGA - CELIA CRUZ
TTITLE2=EL MAMBO ES UNIVERSAL - DANIEL SANTOS
TTITLE3=OYE MIMA - CELIO GONZÁLEZ
TTITLE4=GUEDE ZAINA - CELIA CRUZ
TTITLE5=CAÑONAZO - LAÍTO/ROGELIO/CAITO
TTITLE6=EL YERBERO MODERNO - CELIA
TTITLE7=HUMO - CELIO GONZÁLEZ
TTITLE8=LA MAMA Y LA HIJA - CARLOS ARGENTINO
TTITLE9=RITMO TAMBÓ Y FLORES - CELIA CRUZ
TTITLE10=EL CORNETA - DANIEL SANTOS
TTITLE11=LA ESQUINA DEL MOVIMIENTO - NELSON PINEDO
TTITLE12=AY COSITA LINDA - CARLOS ARGENTINO
TTITLE13=QUE DICHOSO ES - BIENVENIDO GRANDA
TTITLE14=AVE MARÍA LOLA - CARLOS ARGENTINO
TTITLE15=EL VAQUERO - NELSON PINEDO
EXTD=YEAR: 1999
EXTT0=
EXTT1=
EXTT2=
EXTT3=
EXTT4=
EXTT5=
EXTT6=
EXTT7=
EXTT8=
EXTT9=
EXTT10=
EXTT11=
EXTT12=
EXTT13=
EXTT14=
EXTT15=
PLAYORDER=
